# xmcd
#
# Track frame offsets: 
#        150
#        13697
#        35147
#        55025
#        70915
#        86607
#        101385
#        119265
#        136770
#        152837
#        179007
#        193425
#        210570
#        221717
#
# Disc length: 3230 seconds
#
# Revision: 0
# Processed by: cddbd v1.5.2PL0 Copyright (c) Steve Scherf et al.
# Submitted via: ExactAudioCopy v0.99pb4
#
DISCID=cd0c9c0e
DTITLE=Stone River Boys - Love On The Dial
DYEAR=2010
DGENRE=
TTITLE0=Bluebonnet Blue
TTITLE1=Can I Change My Mind
TTITLE2=The Struggle
TTITLE3=Think I'm Gonna Make It
TTITLE4=Lovers Prison
TTITLE5=40 Acres
TTITLE6=Love On The Dial
TTITLE7=Still Feel The Feeling
TTITLE8=Special
TTITLE9=Take A Giant Step
TTITLE10=Love's Gonna Make It
TTITLE11=Martha
TTITLE12=Steel City
TTITLE13=Boomerang
EXTD=
EXTT0=
EXTT1=
EXTT2=
EXTT3=
EXTT4=
EXTT5=
EXTT6=
EXTT7=
EXTT8=
EXTT9=
EXTT10=
EXTT11=
EXTT12=
EXTT13=
PLAYORDER=
